# xmcd CD database file
#
# Track frame offsets:
#	150
#	23011
#	50614
#	75291
#	103374
#	116733
#	153560
#	174719
#	205520
#	241521
#
# Disc length: 3782 seconds
#
# Revision: 0
# Processed by: cddbd v1.5.2PL0 Copyright (c) Steve Scherf et al.
# Submitted via: CDex 1.51
#
DISCID=750ec40a
DTITLE=Fillmore Slim - The Blues Playa`s Ball  CD 2
DYEAR=2011
DGENRE=Blues
TTITLE0=Strip Joint
TTITLE1=The Ghetto
TTITLE2=Fannie Mae
TTITLE3=Go Ahead Woman
TTITLE4=Fine French Women
TTITLE5=Fillmore`s Hood
TTITLE6=Ain`t That A Shame
TTITLE7=Joe Louis Fan
TTITLE8=Playa`s Ball
TTITLE9=I`d Rather Go Blind ( Extended Cut )
EXTD=YEAR: 2011
EXTT0=
EXTT1=
EXTT2=
EXTT3=
EXTT4=
EXTT5=
EXTT6=
EXTT7=
EXTT8=
EXTT9=
PLAYORDER=
